<svg width="30" height="30" viewBox="0 0 30 30" fill="none" xmlns="http://www.w3.org/2000/svg">
<rect width="30" height="30" rx="4" fill="#F3FD96"/>
<path d="M21.6667 16.666H23.3334V18.3327H21.6667C20.5167 18.3327 19.3834 18.041 18.3334 17.4993C16.2501 18.5827 13.7501 18.5827 11.6667 17.4993C10.6167 18.041 9.47508 18.3327 8.33341 18.3327H6.66675V16.666H8.33341C9.49175 16.666 10.6501 16.2743 11.6667 15.5577C13.7001 16.9827 16.3001 16.9827 18.3334 15.5577C19.3501 16.2743 20.5084 16.666 21.6667 16.666ZM21.6667 21.666H23.3334V23.3327H21.6667C20.5167 23.3327 19.3834 23.041 18.3334 22.4993C16.2501 23.5827 13.7501 23.5827 11.6667 22.4993C10.6167 23.041 9.47508 23.3327 8.33341 23.3327H6.66675V21.666H8.33341C9.49175 21.666 10.6501 21.2743 11.6667 20.5577C13.7001 21.9827 16.3001 21.9827 18.3334 20.5577C19.3501 21.2743 20.5084 21.666 21.6667 21.666ZM10.8334 6.66602L7.50008 9.99935H10.0001V14.166H11.6667V9.99935H14.1667M19.1667 6.66602L15.8334 9.99935H18.3334V14.166H20.0001V9.99935H22.5001" fill="#818E02"/>
</svg>
