<svg width="30" height="30" viewBox="0 0 30 30" fill="none" xmlns="http://www.w3.org/2000/svg">
<rect width="30" height="30" rx="4" fill="#F3FD96"/>
<path fill-rule="evenodd" clip-rule="evenodd" d="M9.1915 16.4183L9.78317 11.6767C9.82575 11.3355 9.93822 11.0069 10.1136 10.7112C10.2889 10.4155 10.5233 10.1592 10.8022 9.95816C11.0811 9.75717 11.3985 9.61585 11.7344 9.54304C12.0704 9.47024 12.4178 9.4675 12.7548 9.535C13.469 9.67834 14.2698 9.96834 14.9998 9.96834C15.7298 9.96834 16.5307 9.67834 17.2448 9.535C17.5819 9.46763 17.9291 9.47046 18.265 9.54333C18.6009 9.6162 18.9181 9.75754 19.1969 9.95852C19.4757 10.1595 19.7101 10.4158 19.8853 10.7114C20.0606 11.007 20.1731 11.3356 20.2157 11.6767L20.809 16.4183C21.7557 16.655 23.3332 17.1133 23.3332 18.3342C23.3332 19.6642 21.489 20.1025 20.4832 20.3258C19.0515 20.6442 17.1132 20.8342 14.9998 20.8342C12.8865 20.8342 10.9482 20.6442 9.5165 20.3258C8.50984 20.1025 6.6665 19.6642 6.6665 18.3342C6.6665 17.1133 8.244 16.655 9.1915 16.4183ZM11.4373 11.8842C11.4515 11.7704 11.489 11.6608 11.5474 11.5622C11.6059 11.4636 11.684 11.3781 11.777 11.311C11.87 11.244 11.9759 11.1969 12.0879 11.1726C12.1999 11.1483 12.3158 11.1475 12.4282 11.17C13.2607 11.3367 14.1448 11.635 14.9998 11.635C15.8548 11.635 16.739 11.3367 17.5715 11.17C17.6839 11.1475 17.7997 11.1483 17.9118 11.1726C18.0238 11.1969 18.1296 11.244 18.2226 11.311C18.3156 11.3781 18.3938 11.4636 18.4523 11.5622C18.5107 11.6608 18.5482 11.7704 18.5623 11.8842L19.0882 16.0958C17.889 15.9283 16.4882 15.8342 14.9998 15.8342C13.5115 15.8342 12.1107 15.9283 10.9115 16.095L11.4373 11.8842ZM9.87734 18.7C8.58317 18.4125 8.58317 18.2575 9.87734 17.97C11.159 17.6842 12.9707 17.5008 14.9998 17.5008C17.029 17.5008 18.8407 17.6842 20.1223 17.9692C21.4165 18.2567 21.4165 18.4108 20.1223 18.6992C18.8407 18.9842 17.029 19.1675 14.9998 19.1675C12.9707 19.1675 11.159 18.985 9.87734 18.7Z" fill="#818E02"/>
</svg>
