<svg width="30" height="30" viewBox="0 0 30 30" fill="none" xmlns="http://www.w3.org/2000/svg">
<rect width="30" height="30" rx="4" fill="#C9EAFF"/>
<mask id="mask0_1475_25325" style="mask-type:alpha" maskUnits="userSpaceOnUse" x="5" y="5" width="20" height="20">
<rect x="5" y="5" width="20" height="20" fill="#D9D9D9"/>
</mask>
<g mask="url(#mask0_1475_25325)">
<path d="M17.0417 23.3327C16.8056 23.3327 16.6076 23.2528 16.4479 23.0931C16.2882 22.9334 16.2083 22.7355 16.2083 22.4993C16.2083 22.2632 16.2882 22.0653 16.4479 21.9056C16.6076 21.7459 16.8056 21.666 17.0417 21.666H19.3958L17.4792 20.3118C17.2847 20.173 17.1701 19.9959 17.1354 19.7806C17.1007 19.5653 17.1458 19.3605 17.2708 19.166C17.3958 18.9716 17.5694 18.857 17.7917 18.8223C18.0139 18.7875 18.2222 18.8327 18.4167 18.9577L20.3542 20.291L19.5417 18.0827C19.4583 17.8743 19.4653 17.666 19.5625 17.4577C19.6597 17.2493 19.8194 17.1035 20.0417 17.0202C20.2639 16.9368 20.4792 16.9438 20.6875 17.041C20.8958 17.1382 21.0417 17.298 21.125 17.5202L21.9167 19.7285L22.5417 17.4577C22.6111 17.2355 22.7396 17.0653 22.9271 16.9473C23.1146 16.8292 23.3194 16.8049 23.5417 16.8743C23.7639 16.9438 23.9375 17.0723 24.0625 17.2598C24.1875 17.4473 24.2153 17.6521 24.1458 17.8743L22.6875 23.3327H17.0417ZM9.16667 21.666C8.70833 21.666 8.31597 21.5028 7.98958 21.1764C7.66319 20.85 7.5 20.4577 7.5 19.9993V9.99935C7.5 9.54102 7.66319 9.14865 7.98958 8.82227C8.31597 8.49588 8.70833 8.33268 9.16667 8.33268H10V6.66602H11.6667V8.33268H16.6667V6.66602H18.3333V8.33268H19.1667C19.625 8.33268 20.0174 8.49588 20.3438 8.82227C20.6701 9.14865 20.8333 9.54102 20.8333 9.99935V15.0827C20.5556 15.041 20.2778 15.0202 20 15.0202C19.7222 15.0202 19.4444 15.041 19.1667 15.0827V13.3327H9.16667V19.9993H15C15 20.2771 15.0208 20.5549 15.0625 20.8327C15.1042 21.1105 15.1806 21.3882 15.2917 21.666H9.16667ZM9.16667 11.666H19.1667V9.99935H9.16667V11.666Z" fill="#106ACF"/>
</g>
</svg>
