<svg width="30" height="30" viewBox="0 0 30 30" fill="none" xmlns="http://www.w3.org/2000/svg">
<rect width="30" height="30" rx="4" fill="#CDFFCF"/>
<mask id="mask0_1475_25269" style="mask-type:alpha" maskUnits="userSpaceOnUse" x="5" y="5" width="20" height="20">
<rect x="5" y="5" width="20" height="20" fill="#D9D9D9"/>
</mask>
<g mask="url(#mask0_1475_25269)">
<path d="M16.6667 14.1667H22.5V10H16.6667V14.1667ZM19.5833 13.125L17.5 11.6667V10.8333L19.5833 12.2917L21.6667 10.8333V11.6667L19.5833 13.125ZM6.66667 22.5C6.20833 22.5 5.81597 22.3368 5.48958 22.0104C5.16319 21.684 5 21.2917 5 20.8333V9.16667C5 8.70833 5.16319 8.31597 5.48958 7.98958C5.81597 7.66319 6.20833 7.5 6.66667 7.5H23.3333C23.7917 7.5 24.184 7.66319 24.5104 7.98958C24.8368 8.31597 25 8.70833 25 9.16667V20.8333C25 21.2917 24.8368 21.684 24.5104 22.0104C24.184 22.3368 23.7917 22.5 23.3333 22.5H6.66667ZM18.25 20.8333H23.3333V9.16667H6.66667V20.8333H6.75C7.33333 19.7917 8.13889 18.9757 9.16667 18.3854C10.1944 17.7951 11.3056 17.5 12.5 17.5C13.6944 17.5 14.8056 17.7951 15.8333 18.3854C16.8611 18.9757 17.6667 19.7917 18.25 20.8333ZM12.5 16.6667C13.1944 16.6667 13.7847 16.4236 14.2708 15.9375C14.7569 15.4514 15 14.8611 15 14.1667C15 13.4722 14.7569 12.8819 14.2708 12.3958C13.7847 11.9097 13.1944 11.6667 12.5 11.6667C11.8056 11.6667 11.2153 11.9097 10.7292 12.3958C10.2431 12.8819 10 13.4722 10 14.1667C10 14.8611 10.2431 15.4514 10.7292 15.9375C11.2153 16.4236 11.8056 16.6667 12.5 16.6667ZM8.79167 20.8333H16.2083C15.7361 20.3056 15.1771 19.8958 14.5312 19.6042C13.8854 19.3125 13.2083 19.1667 12.5 19.1667C11.7917 19.1667 11.1181 19.3125 10.4792 19.6042C9.84028 19.8958 9.27778 20.3056 8.79167 20.8333ZM12.5 15C12.2639 15 12.066 14.9201 11.9062 14.7604C11.7465 14.6007 11.6667 14.4028 11.6667 14.1667C11.6667 13.9306 11.7465 13.7326 11.9062 13.5729C12.066 13.4132 12.2639 13.3333 12.5 13.3333C12.7361 13.3333 12.934 13.4132 13.0938 13.5729C13.2535 13.7326 13.3333 13.9306 13.3333 14.1667C13.3333 14.4028 13.2535 14.6007 13.0938 14.7604C12.934 14.9201 12.7361 15 12.5 15Z" fill="#0B930F"/>
</g>
</svg>
