<svg width="30" height="30" viewBox="0 0 30 30" fill="none" xmlns="http://www.w3.org/2000/svg">
<rect width="30" height="30" rx="4" fill="#C9EAFF"/>
<mask id="mask0_1475_25335" style="mask-type:alpha" maskUnits="userSpaceOnUse" x="5" y="5" width="20" height="20">
<rect x="5" y="5" width="19.0476" height="20" fill="#D9D9D9"/>
</mask>
<g mask="url(#mask0_1475_25335)">
<path d="M8.17495 22.5C7.73844 22.5 7.36476 22.3368 7.05392 22.0104C6.74307 21.684 6.58765 21.2917 6.58765 20.8333V10.8333H8.17495V20.8333H20.0797V22.5H8.17495ZM11.3496 19.1667C10.913 19.1667 10.5394 19.0035 10.2285 18.6771C9.91767 18.3507 9.76225 17.9583 9.76225 17.5V7.5H23.2543V17.5C23.2543 17.9583 23.0989 18.3507 22.788 18.6771C22.4772 19.0035 22.1035 19.1667 21.667 19.1667H11.3496ZM11.3496 17.5H21.667V9.16667H11.3496V17.5ZM12.9369 15H16.1115V10.8333H12.9369V15ZM16.9051 15H20.0797V13.3333H16.9051V15ZM16.9051 12.5H20.0797V10.8333H16.9051V12.5Z" fill="#106ACF"/>
</g>
</svg>
