<svg width="30" height="30" viewBox="0 0 30 30" fill="none" xmlns="http://www.w3.org/2000/svg">
<rect width="30" height="30" rx="4" fill="#C9EAFF"/>
<path d="M11.0376 7.01077C11.1364 6.88538 11.1851 6.72379 11.1731 6.56069C11.1611 6.3976 11.0895 6.246 10.9736 6.13845C10.8577 6.03089 10.7067 5.97595 10.5531 5.98542C10.3996 5.99489 10.2556 6.06802 10.1522 6.1891L9.1398 7.42244C8.56574 8.12208 8.24122 9.01408 8.22301 9.94244L8.17835 12.2083C8.17675 12.2903 8.19037 12.372 8.21844 12.4484C8.2465 12.5249 8.28845 12.5948 8.34189 12.654C8.39533 12.7132 8.45922 12.7607 8.52992 12.7937C8.60061 12.8266 8.67671 12.8445 8.75389 12.8462C8.83107 12.8479 8.9078 12.8334 8.97971 12.8036C9.05162 12.7737 9.1173 12.7291 9.173 12.6723C9.2287 12.6154 9.27333 12.5475 9.30434 12.4723C9.33535 12.3971 9.35213 12.3162 9.35372 12.2341L9.3976 9.9691C9.41017 9.33388 9.63234 8.72357 10.0253 8.24494L11.0376 7.01077Z" fill="#106ACF"/>
<path fill-rule="evenodd" clip-rule="evenodd" d="M10.8872 11.416C10.9398 10.5245 11.31 9.68775 11.9223 9.07621C12.5345 8.46468 13.343 8.12429 14.1829 8.12435H14.6194V7.49935C14.6194 7.27834 14.702 7.06637 14.8489 6.91009C14.9959 6.75381 15.1952 6.66602 15.403 6.66602C15.6108 6.66602 15.8101 6.75381 15.9571 6.91009C16.104 7.06637 16.1866 7.27834 16.1866 7.49935V8.12435H16.623C17.463 8.12429 18.2714 8.46468 18.8837 9.07621C19.496 9.68775 19.8661 10.5245 19.9188 11.416L20.0919 14.361C20.1589 15.4837 20.5133 16.5655 21.1169 17.4893C21.2417 17.6802 21.318 17.9022 21.3384 18.1338C21.3587 18.3653 21.3223 18.5985 21.2327 18.8106C21.1432 19.0228 21.0036 19.2067 20.8274 19.3445C20.6513 19.4822 20.4446 19.5692 20.2275 19.5968L17.5578 19.9368V20.8327C17.5578 21.4405 17.3308 22.0234 16.9267 22.4531C16.5226 22.8829 15.9745 23.1243 15.403 23.1243C14.8315 23.1243 14.2834 22.8829 13.8793 22.4531C13.4752 22.0234 13.2481 21.4405 13.2481 20.8327V19.9368L10.5785 19.596C10.3615 19.5683 10.155 19.4813 9.97891 19.3436C9.80287 19.2059 9.66331 19.0221 9.5738 18.8101C9.48429 18.598 9.44787 18.365 9.46807 18.1336C9.48828 17.9022 9.56442 17.6802 9.68911 17.4893C10.2927 16.5655 10.6471 15.4837 10.714 14.361L10.8872 11.416ZM14.1829 9.37435C13.6419 9.37428 13.1213 9.59349 12.7269 9.98736C12.3325 10.3812 12.0941 10.9201 12.0602 11.4943L11.8878 14.4393C11.8073 15.79 11.3808 17.0914 10.6545 18.2027C10.6454 18.2165 10.6399 18.2325 10.6384 18.2493C10.637 18.266 10.6396 18.2829 10.6461 18.2983C10.6525 18.3136 10.6626 18.3269 10.6754 18.3369C10.6881 18.3469 10.703 18.3532 10.7187 18.3552L13.647 18.7293C14.8137 18.8777 15.9922 18.8777 17.159 18.7293L20.0872 18.3552C20.1029 18.3532 20.1179 18.3469 20.1306 18.3369C20.1434 18.3269 20.1534 18.3136 20.1599 18.2983C20.1664 18.2829 20.169 18.266 20.1675 18.2493C20.1661 18.2325 20.1605 18.2165 20.1515 18.2027C19.4255 17.0913 18.9993 15.7899 18.9189 14.4393L18.7457 11.4943C18.7119 10.9201 18.4735 10.3812 18.0791 9.98736C17.6847 9.59349 17.164 9.37428 16.623 9.37435H14.1829ZM15.403 21.8743C14.8623 21.8743 14.4235 21.4077 14.4235 20.8327V20.2077H16.3825V20.8327C16.3825 21.4077 15.9437 21.8743 15.403 21.8743Z" fill="#106ACF"/>
<path d="M19.8248 6.1286C19.7074 6.23758 19.6355 6.39168 19.6249 6.55701C19.6143 6.72234 19.6659 6.88538 19.7683 7.01027L20.7807 8.2436C21.1735 8.72257 21.3954 9.33319 21.4076 9.9686L21.4522 12.2328C21.4555 12.3985 21.5205 12.5561 21.633 12.6709C21.7455 12.7857 21.8962 12.8483 22.0521 12.8449C22.2079 12.8414 22.3561 12.7723 22.4641 12.6527C22.572 12.533 22.6308 12.3727 22.6276 12.2069L22.583 9.94193C22.5648 9.01358 22.2402 8.12157 21.6662 7.42193L20.6538 6.1886C20.5513 6.06376 20.4064 5.9873 20.2509 5.97605C20.0955 5.9648 19.9422 6.01967 19.8248 6.1286Z" fill="#106ACF"/>
</svg>
