<svg width="30" height="30" viewBox="0 0 30 30" fill="none" xmlns="http://www.w3.org/2000/svg">
<rect width="30" height="30" rx="4" fill="#CDFFCF"/>
<g clip-path="url(#clip0_1475_25259)">
<path fill-rule="evenodd" clip-rule="evenodd" d="M6.96875 6.625H24.0312L24.6875 7.28125V14.5039C24.2811 14.1989 23.8406 13.9421 23.375 13.7387V7.9375H7.625V19.75H14.1875C14.1875 21.1699 14.648 22.5516 15.5 23.6875H10.25V22.375H14.1875V21.0625H6.96875L6.3125 20.4062V7.28125L6.96875 6.625Z" fill="#0B930F"/>
<path fill-rule="evenodd" clip-rule="evenodd" d="M17.8337 15.3843C18.4069 14.997 19.051 14.7268 19.7289 14.5892C20.4068 14.4517 21.1053 14.4494 21.7841 14.5827C22.4629 14.7159 23.1087 14.982 23.6843 15.3656C24.26 15.7492 24.7541 16.2428 25.1384 16.818C25.5227 17.3932 25.7895 18.0386 25.9235 18.7173C26.0575 19.3959 26.0561 20.0944 25.9193 20.7725C25.7825 21.4506 25.5131 22.095 25.1265 22.6686C24.7398 23.2422 24.2437 23.7338 23.6665 24.115C22.5086 24.8798 21.0951 25.1551 19.7349 24.8807C18.3746 24.6063 17.1784 23.8046 16.4075 22.6508C15.6367 21.497 15.354 20.0849 15.6213 18.7233C15.8885 17.3616 16.6839 16.1612 17.8337 15.3843ZM20.6293 21.9337L23.7623 17.7573L22.7123 16.9698L19.9862 20.6041L18.2786 19.2378L17.4583 20.2615L19.6948 22.0518L20.6306 21.9337H20.6293Z" fill="#0B930F"/>
</g>
<defs>
<clipPath id="clip0_1475_25259">
<rect width="21" height="21" fill="white" transform="translate(5 4)"/>
</clipPath>
</defs>
</svg>
