<svg width="30" height="30" viewBox="0 0 30 30" fill="none" xmlns="http://www.w3.org/2000/svg">
<rect width="30" height="30" rx="4" fill="#C9EAFF"/>
<mask id="mask0_1475_25357" style="mask-type:alpha" maskUnits="userSpaceOnUse" x="5" y="5" width="20" height="20">
<rect x="5" y="5" width="20" height="20" fill="#D9D9D9"/>
</mask>
<g mask="url(#mask0_1475_25357)">
<path d="M12.4999 23.3333C10.6388 23.3333 9.06242 22.6875 7.77075 21.3958C6.47909 20.1042 5.83325 18.5278 5.83325 16.6667H7.49992C7.49992 18.0556 7.98603 19.2361 8.95825 20.2083C9.93047 21.1806 11.111 21.6667 12.4999 21.6667V23.3333ZM12.4999 20.4167C11.4583 20.4167 10.5728 20.0521 9.84367 19.3229C9.1145 18.5938 8.74992 17.7083 8.74992 16.6667H10.4166C10.4166 17.25 10.618 17.7431 11.0208 18.1458C11.4235 18.5486 11.9166 18.75 12.4999 18.75V20.4167ZM13.3333 17.5C12.8749 17.5 12.4826 17.3368 12.1562 17.0104C11.8298 16.684 11.6666 16.2917 11.6666 15.8333V9.16667C11.6666 8.70833 11.8298 8.31597 12.1562 7.98958C12.4826 7.66319 12.8749 7.5 13.3333 7.5H16.6666C17.1249 7.5 17.5173 7.66319 17.8437 7.98958C18.1701 8.31597 18.3333 8.70833 18.3333 9.16667V15.8333C18.3333 16.2917 18.1701 16.684 17.8437 17.0104C17.5173 17.3368 17.1249 17.5 16.6666 17.5H13.3333ZM13.3333 15.8333H16.6666V9.16667H13.3333V15.8333ZM17.4999 20.4167V18.75C18.0833 18.75 18.5763 18.5486 18.9791 18.1458C19.3819 17.7431 19.5833 17.25 19.5833 16.6667H21.2499C21.2499 17.7083 20.8853 18.5938 20.1562 19.3229C19.427 20.0521 18.5416 20.4167 17.4999 20.4167ZM17.4999 23.3333V21.6667C18.8888 21.6667 20.0694 21.1806 21.0416 20.2083C22.0138 19.2361 22.4999 18.0556 22.4999 16.6667H24.1666C24.1666 18.5278 23.5208 20.1042 22.2291 21.3958C20.9374 22.6875 19.361 23.3333 17.4999 23.3333Z" fill="#106ACF"/>
</g>
</svg>
