<svg width="40" height="40" viewBox="0 0 40 40" fill="none" xmlns="http://www.w3.org/2000/svg">
<rect width="40" height="40" rx="4" fill="#EEF1FF"/>
<path d="M10.916 10.916H19.541V19.541H10.916V10.916ZM12.8327 12.8327V17.6243H17.6243V12.8327H12.8327ZM25.7702 12.8327C25.1348 12.8327 24.5254 13.0851 24.0761 13.5344C23.6268 13.9837 23.3743 14.5931 23.3743 15.2285C23.3743 15.8639 23.6268 16.4733 24.0761 16.9226C24.5254 17.3719 25.1348 17.6243 25.7702 17.6243C26.4056 17.6243 27.015 17.3719 27.4643 16.9226C27.9136 16.4733 28.166 15.8639 28.166 15.2285C28.166 14.5931 27.9136 13.9837 27.4643 13.5344C27.015 13.0851 26.4056 12.8327 25.7702 12.8327ZM21.4577 15.2285C21.4577 14.6622 21.5692 14.1014 21.786 13.5782C22.0027 13.055 22.3203 12.5796 22.7208 12.1791C23.1212 11.7787 23.5966 11.461 24.1199 11.2443C24.6431 11.0276 25.2039 10.916 25.7702 10.916C26.3365 10.916 26.8973 11.0276 27.4205 11.2443C27.9437 11.461 28.4191 11.7787 28.8196 12.1791C29.22 12.5796 29.5377 13.055 29.7544 13.5782C29.9711 14.1014 30.0827 14.6622 30.0827 15.2285C30.0827 16.3723 29.6283 17.4692 28.8196 18.2779C28.0108 19.0867 26.9139 19.541 25.7702 19.541C24.6264 19.541 23.5295 19.0867 22.7208 18.2779C21.912 17.4692 21.4577 16.3723 21.4577 15.2285ZM10.916 21.4577H19.541V30.0827H10.916V21.4577ZM12.8327 23.3743V28.166H17.6243V23.3743H12.8327ZM21.4577 21.4577H30.0827V30.0827H21.4577V21.4577ZM23.3743 23.3743V28.166H28.166V23.3743H23.3743Z" fill="#31A5E0"/>
</svg>
