<svg width="40" height="40" viewBox="0 0 40 40" fill="none" xmlns="http://www.w3.org/2000/svg">
<rect width="40" height="40" rx="4" fill="#FFDFC4"/>
<path d="M10.9165 10.916H19.5415V19.541H10.9165V10.916ZM12.8332 12.8327V17.6243H17.6248V12.8327H12.8332ZM25.7707 12.8327C25.1353 12.8327 24.5259 13.0851 24.0766 13.5344C23.6273 13.9837 23.3748 14.5931 23.3748 15.2285C23.3748 15.8639 23.6273 16.4733 24.0766 16.9226C24.5259 17.3719 25.1353 17.6243 25.7707 17.6243C26.4061 17.6243 27.0155 17.3719 27.4648 16.9226C27.9141 16.4733 28.1665 15.8639 28.1665 15.2285C28.1665 14.5931 27.9141 13.9837 27.4648 13.5344C27.0155 13.0851 26.4061 12.8327 25.7707 12.8327ZM21.4582 15.2285C21.4582 14.6622 21.5697 14.1014 21.7864 13.5782C22.0032 13.055 22.3208 12.5796 22.7213 12.1791C23.1217 11.7787 23.5971 11.461 24.1203 11.2443C24.6436 11.0276 25.2043 10.916 25.7707 10.916C26.337 10.916 26.8978 11.0276 27.421 11.2443C27.9442 11.461 28.4196 11.7787 28.8201 12.1791C29.2205 12.5796 29.5382 13.055 29.7549 13.5782C29.9716 14.1014 30.0832 14.6622 30.0832 15.2285C30.0832 16.3723 29.6288 17.4692 28.8201 18.2779C28.0113 19.0867 26.9144 19.541 25.7707 19.541C24.6269 19.541 23.53 19.0867 22.7213 18.2779C21.9125 17.4692 21.4582 16.3723 21.4582 15.2285ZM10.9165 21.4577H19.5415V30.0827H10.9165V21.4577ZM12.8332 23.3743V28.166H17.6248V23.3743H12.8332ZM21.4582 21.4577H30.0832V30.0827H21.4582V21.4577ZM23.3748 23.3743V28.166H28.1665V23.3743H23.3748Z" fill="#F58220"/>
</svg>
