<svg width="30" height="30" viewBox="0 0 30 30" fill="none" xmlns="http://www.w3.org/2000/svg">
<rect width="30" height="30" rx="4" fill="#F3FD96"/>
<path d="M10.4414 18.0764C10.7078 18.3838 10.8801 18.7614 10.9377 19.1641C10.9953 19.5667 10.9358 19.9775 10.7662 20.3472C10.5967 20.717 10.3243 21.0301 9.98154 21.2492C9.63882 21.4682 9.24026 21.584 8.8335 21.5827C7.65766 21.5827 6.7085 20.6335 6.7085 19.4577C6.7085 18.2819 7.65766 17.3327 8.8335 17.3327C8.961 17.3327 9.0885 17.3327 9.20891 17.3681L11.3835 13.5714L10.151 12.8702L13.0481 12.0769L13.8414 14.9739L12.6089 14.2727L10.4414 18.0764ZM20.1668 17.3327C19.246 17.3327 18.4668 17.9277 18.1693 18.7494H13.7918V17.3327L11.6668 19.4577L13.7918 21.5827V20.166H18.1693C18.4668 20.9877 19.246 21.5827 20.1668 21.5827C21.3427 21.5827 22.2918 20.6335 22.2918 19.4577C22.2918 18.2819 21.3427 17.3327 20.1668 17.3327ZM14.5002 11.666C14.6277 11.666 14.7552 11.666 14.8756 11.6306L17.0502 15.4273L15.8177 16.1285L18.7147 16.9219L19.5081 14.0248L18.2756 14.726L16.1081 10.9223C16.3745 10.6149 16.5468 10.2373 16.6044 9.83466C16.662 9.43199 16.6025 9.02125 16.4329 8.6515C16.2634 8.28176 15.9909 7.96864 15.6482 7.74956C15.3055 7.53048 14.9069 7.41469 14.5002 7.41603C13.3243 7.41603 12.3752 8.36519 12.3752 9.54103C12.3752 10.7169 13.3243 11.666 14.5002 11.666Z" fill="#818E02"/>
</svg>
