<svg width="30" height="30" viewBox="0 0 30 30" fill="none" xmlns="http://www.w3.org/2000/svg">
<rect width="30" height="30" rx="4" fill="#F3FD96"/>
<path d="M7.5 10.8333V8.84667C7.5 8.46278 7.62861 8.1425 7.88583 7.88583C8.14306 7.62917 8.46306 7.50056 8.84583 7.5H10.8333V8.33333H8.84667C8.71833 8.33333 8.60056 8.38667 8.49333 8.49333C8.38611 8.6 8.33278 8.7175 8.33333 8.84583V10.8333H7.5ZM10.8333 22.5H8.84667C8.46278 22.5 8.1425 22.3717 7.88583 22.115C7.62917 21.8583 7.50056 21.5381 7.5 21.1542V19.1667H8.33333V21.1542C8.33333 21.2819 8.38667 21.3994 8.49333 21.5067C8.6 21.6139 8.7175 21.6672 8.84583 21.6667H10.8333V22.5ZM19.1667 22.5V21.6667H21.1542C21.2819 21.6667 21.3994 21.6133 21.5067 21.5067C21.6139 21.4 21.6672 21.2822 21.6667 21.1533V19.1667H22.5V21.1542C22.5 21.5375 22.3717 21.8575 22.115 22.1142C21.8583 22.3708 21.5381 22.4994 21.1542 22.5H19.1667ZM21.6667 10.8333V8.84667C21.6667 8.71833 21.6133 8.60056 21.5067 8.49333C21.4 8.38611 21.2825 8.33278 21.1542 8.33333H19.1667V7.5H21.1542C21.5375 7.5 21.8575 7.62861 22.1142 7.88583C22.3708 8.14306 22.4994 8.46306 22.5 8.84583V10.8333H21.6667ZM16.25 12.66C15.8556 12.66 15.5219 12.5236 15.2492 12.2508C14.9764 11.9775 14.84 11.6439 14.84 11.25C14.84 10.8561 14.9764 10.5225 15.2492 10.2492C15.5225 9.97639 15.8561 9.84 16.25 9.84C16.6439 9.84 16.9775 9.97639 17.2508 10.2492C17.5236 10.5219 17.66 10.8556 17.66 11.25C17.66 11.6444 17.5236 11.9781 17.2508 12.2508C16.9781 12.5236 16.6444 12.66 16.25 12.66ZM15.3467 19.4875H12.8467L13.7117 15.045L11.25 16.0608V18.75H10.4167V15.5067L13.7408 14.1217C14.0986 13.9772 14.3625 13.8792 14.5325 13.8275C14.7025 13.7758 14.8583 13.75 15 13.75C15.2167 13.75 15.4181 13.8078 15.6042 13.9233C15.7903 14.0389 15.9436 14.1947 16.0642 14.3908L16.8975 15.7242C17.2475 16.2864 17.7317 16.7711 18.35 17.1783C18.9683 17.5856 19.6572 17.8211 20.4167 17.885V18.7183C19.6389 18.665 18.8586 18.4206 18.0758 17.985C17.2936 17.5494 16.6156 16.8697 16.0417 15.9458L15.3467 19.4875Z" fill="#818E02"/>
</svg>
